Coordinates
version=1
nRows=24
nColumns=50
inDegrees=no

Units are S.I. units (second, meters, Newtons, ...)
If the header above contains a line with 'inDegrees', this indicates whether rotational values are in degrees (yes) or radians (no).

endheader
time	pelvis_tilt	pelvis_list	pelvis_rotation	pelvis_tx	pelvis_ty	pelvis_tz	hip_flexion_r	hip_adduction_r	hip_rotation_r	knee_angle_r	ankle_angle_r	subtalar_angle_r	mtp_angle_r	hip_flexion_l	hip_adduction_l	hip_rotation_l	knee_angle_l	ankle_angle_l	subtalar_angle_l	mtp_angle_l	lumbar_bending	lumbar_extension	lumbar_twist	thorax_bending	thorax_extension	thorax_twist	head_bending	head_extension	head_twist	scapula_abduction_r	scapula_elevation_r	scapula_upward_rot_r	shoulder_r_x	shoulder_r_y	shoulder_r_z	elbow_flexion_r	pro_sup_r	wrist_flexion_r	wrist_deviation_r	scapula_abduction_l	scapula_elevation_l	scapula_upward_rot_l	shoulder_l_x	shoulder_l_y	shoulder_l_z	elbow_flexion_l	pro_sup_l	wrist_flexion_l	wrist_deviation_l
0.745835	0.0429663	-0.0498163	-1.90691	-0.0336165	0.975249	0.608581	0.172784	-0.152876	-0.264851	0.560945	0.0909587	0.0598699	-0.102491	0.0200917	0.0451808	-0.0553721	0.377302	0.185959	0.0298228	-0.0720349	0.0398234	-0.73623	-0.0472944	-0.000703895	0.20603	-0.0725182	0.0330365	-0.236606	-0.0031414	-1.1748	-0.161527	0.0368893	-0.442107	0.069743	-0.395725	0.568891	0.113936	0.233915	-0.0874814	-1.13367	-0.0604288	0.0620423	0.51999	-0.0964718	-0.0569255	0.820068	0.150347	0.215274	-0.0690895
0.754122	0.0409451	-0.0534051	-1.91171	-0.025414	0.975949	0.585072	0.142546	-0.162204	-0.262627	0.573248	0.0958355	0.056682	-0.103696	0.0322136	0.0504086	-0.0551908	0.367934	0.179266	0.025138	-0.0713444	0.0298238	-0.729022	-0.0518812	-0.00310807	0.203598	-0.0658746	0.0339075	-0.235116	-0.00546755	-1.17571	-0.161567	0.0388803	-0.441193	0.071509	-0.394838	0.56957	0.113267	0.233266	-0.0868318	-1.13623	-0.0611299	0.0629058	0.522883	-0.0904721	-0.0720537	0.805722	0.147916	0.216156	-0.0669613
0.762409	0.0406148	-0.057453	-1.91494	-0.0180962	0.976769	0.56062	0.106135	-0.171775	-0.260755	0.581161	0.101661	0.0549391	-0.104657	0.0464136	0.0562957	-0.0557506	0.358573	0.171245	0.0200205	-0.0706811	0.0187757	-0.720689	-0.0566009	-0.00580016	0.200614	-0.0576435	0.0340212	-0.233942	-0.00656107	-1.17659	-0.161341	0.0415819	-0.440551	0.0734661	-0.393658	0.570829	0.112194	0.232321	-0.0861464	-1.13916	-0.0619147	0.0640392	0.525421	-0.0840798	-0.0896065	0.791581	0.145251	0.217117	-0.0648448
0.770696	0.0418561	-0.0621833	-1.91677	-0.0118451	0.97766	0.535248	0.0647887	-0.181035	-0.259489	0.583147	0.108267	0.0551391	-0.105255	0.0624136	0.0625564	-0.0572144	0.349929	0.162298	0.0147817	-0.0700514	0.00699146	-0.711609	-0.0612073	-0.00873252	0.197162	-0.0479074	0.0333484	-0.233243	-0.00633851	-1.17741	-0.160841	0.0449688	-0.440307	0.0754867	-0.392136	0.572777	0.1107	0.231045	-0.0854765	-1.14242	-0.0627473	0.0654219	0.527554	-0.0773628	-0.109165	0.778059	0.142432	0.218086	-0.062855
0.778983	0.0444093	-0.0678567	-1.91745	-0.00677156	0.978583	0.508964	0.0202436	-0.189448	-0.258996	0.578288	0.115519	0.0575277	-0.105403	0.0797194	0.0688396	-0.0595909	0.342571	0.152839	0.00971379	-0.0694675	-0.00510172	-0.702241	-0.0654405	-0.0118635	0.193386	-0.0369191	0.0319368	-0.233103	-0.0048434	-1.1781	-0.160092	0.0489665	-0.440558	0.0774396	-0.390183	0.575515	0.10881	0.229413	-0.0848743	-1.14594	-0.0635943	0.0670047	0.529244	-0.0704552	-0.13016	0.765478	0.139559	0.218998	-0.0610979
0.78727	0.0479391	-0.0747131	-1.91716	-0.00290983	0.979516	0.481779	-0.025443	-0.19659	-0.259303	0.566593	0.123307	0.0620452	-0.105064	0.0976373	0.0747727	-0.0627002	0.336886	0.143245	0.00505178	-0.0689559	-0.0170037	-0.693062	-0.0690669	-0.0151518	0.189473	-0.0250742	0.0298932	-0.233525	-0.00222536	-1.17863	-0.159137	0.0534643	-0.44136	0.0791981	-0.387699	0.579108	0.106591	0.227423	-0.0843804	-1.14961	-0.064431	0.068714	0.53045	-0.0635554	-0.151918	0.754056	0.136744	0.219809	-0.0596532
0.795557	0.0520993	-0.0829117	-1.91601	-0.000219864	0.980451	0.453724	-0.0701331	-0.202208	-0.26029	0.54902	0.131477	0.0683633	-0.10425	0.11534	0.0800154	-0.0662107	0.333063	0.13383	0.00095304	-0.0685539	-0.0282158	-0.684488	-0.0719114	-0.0185364	0.185614	-0.0128574	0.0273633	-0.234446	0.00128093	-1.17894	-0.158034	0.0583253	-0.442724	0.0806532	-0.384612	0.583545	0.104136	0.225107	-0.0840169	-1.1533	-0.0652443	0.0704554	0.531134	-0.0569079	-0.173745	0.743883	0.134096	0.220514	-0.0585624
0.803844	0.0565724	-0.0924892	-1.91398	0.00140303	0.98139	0.424858	-0.111869	-0.206216	-0.261713	0.52719	0.139806	0.0759762	-0.10303	0.131962	0.0842882	-0.0697289	0.331163	0.124846	-0.00250921	-0.0683005	-0.0382927	-0.676824	-0.0738705	-0.021933	0.181982	-0.000779818	0.0245278	-0.235741	0.0053709	-1.179	-0.156847	0.0633902	-0.444623	0.0817232	-0.380914	0.588705	0.101558	0.222541	-0.0837857	-1.15688	-0.066028	0.0721243	0.531263	-0.0507783	-0.195006	0.734894	0.13172	0.221157	-0.0578283
0.812131	0.0610936	-0.103345	-1.91104	0.00211495	0.982348	0.395285	-0.149083	-0.208655	-0.263289	0.502934	0.148013	0.0843021	-0.101533	0.146693	0.0873844	-0.0728985	0.331189	0.1165	-0.00533888	-0.0682123	-0.0468827	-0.670242	-0.0748902	-0.0252259	0.178716	0.0106543	0.0215826	-0.237235	0.0097032	-1.17881	-0.155638	0.0684929	-0.447008	0.0823575	-0.376671	0.594355	0.0989761	0.219833	-0.0836725	-1.16024	-0.0667789	0.073611	0.530836	-0.0454327	-0.215171	0.726886	0.129715	0.221815	-0.0574255
0.820419	0.0654715	-0.115249	-1.90713	0.00210886	0.983339	0.36516	-0.180694	-0.209634	-0.264785	0.477929	0.155785	0.092776	-0.0998991	0.158819	0.0891713	-0.075462	0.333132	0.108962	-0.00759875	-0.068289	-0.0537374	-0.664771	-0.074971	-0.0283123	0.175919	0.0210112	0.0187294	-0.238702	0.0139407	-1.17836	-0.154464	0.0734668	-0.44982	0.0825413	-0.372029	0.60018	0.0965108	0.21711	-0.083653	-1.16329	-0.067489	0.0748305	0.529876	-0.0410967	-0.233827	0.719588	0.12818	0.222584	-0.057315
0.828706	0.0695758	-0.127867	-1.90221	0.00160188	0.984381	0.334696	-0.206097	-0.209288	-0.266043	0.453529	0.162785	0.100891	-0.0982582	0.167731	0.0895788	-0.0772615	0.336996	0.10238	-0.00938998	-0.0685137	-0.058707	-0.6603	-0.0741498	-0.0311086	0.173661	0.0299438	0.0161563	-0.239891	0.0177843	-1.17768	-0.153371	0.0781555	-0.452992	0.0822914	-0.367196	0.605822	0.0942815	0.21451	-0.083698	-1.16598	-0.0681446	0.0757321	0.528449	-0.0379328	-0.250674	0.712722	0.127211	0.223563	-0.0574544
0.836993	0.073293	-0.140788	-1.89628	0.000822631	0.985486	0.304169	-0.225091	-0.20775	-0.266954	0.430748	0.168665	0.108211	-0.0967237	0.172926	0.0885867	-0.0782073	0.342825	0.0968861	-0.010835	-0.0688565	-0.0617232	-0.656594	-0.0724866	-0.0335485	0.17198	0.0372046	0.0140158	-0.240563	0.0209949	-1.17681	-0.152398	0.0824258	-0.456455	0.0816484	-0.362422	0.610936	0.0923942	0.212166	-0.0837767	-1.16825	-0.0687299	0.0762982	0.526654	-0.0360215	-0.265521	0.706054	0.126891	0.224838	-0.0578016
0.84528	0.076501	-0.153551	-1.88941	-1.18514e-06	0.986663	0.273905	-0.237824	-0.205122	-0.267422	0.410259	0.173096	0.114397	-0.0953915	0.174014	0.0862153	-0.0782551	0.350708	0.0925871	-0.0120615	-0.0692814	-0.0627913	-0.653317	-0.0700565	-0.0355803	0.170881	0.0426523	0.0124185	-0.240522	0.0233985	-1.17581	-0.151568	0.086173	-0.460136	0.0806675	-0.35798	0.615223	0.0909348	0.210209	-0.0838587	-1.17009	-0.0692292	0.0765419	0.524635	-0.0353524	-0.278286	0.699429	0.127272	0.226474	-0.0583172
0.853567	0.0790657	-0.165678	-1.88175	-0.000656107	0.987907	0.244264	-0.244735	-0.201463	-0.267345	0.392421	0.175813	0.119217	-0.0943352	0.170738	0.082512	-0.0773917	0.360733	0.0895472	-0.0131899	-0.0697524	-0.061976	-0.650063	-0.0669415	-0.037172	0.170339	0.0462407	0.0114361	-0.239623	0.0248808	-1.17477	-0.1509	0.0893226	-0.463961	0.079408	-0.354145	0.618457	0.0899666	0.208753	-0.0839142	-1.1715	-0.0696289	0.0765034	0.522553	-0.0358353	-0.288984	0.692777	0.128382	0.228515	-0.058965
0.861854	0.0808492	-0.176702	-1.87349	-0.000955314	0.9892	0.215613	-0.246481	-0.196796	-0.266617	0.377321	0.176665	0.12255	-0.0936047	0.16298	0.0775471	-0.0756355	0.372885	0.0877558	-0.0143138	-0.0702262	-0.0593869	-0.64641	-0.0632374	-0.0383171	0.170306	0.04802	0.0111014	-0.237778	0.0253898	-1.17375	-0.150401	0.0918297	-0.467855	0.0779307	-0.351158	0.62049	0.089529	0.207889	-0.083917	-1.17247	-0.0699196	0.0762361	0.520565	-0.0373323	-0.297702	0.686092	0.130209	0.230974	-0.0597119
0.870141	0.0817249	-0.186203	-1.86487	-0.000744944	0.990505	0.188302	-0.243873	-0.191139	-0.265166	0.364838	0.175645	0.124371	-0.0932176	0.150782	0.0714208	-0.0730308	0.386902	0.0871018	-0.0154786	-0.0706746	-0.0551674	-0.641973	-0.0590424	-0.0390254	0.170721	0.0481063	0.0114076	-0.234938	0.0249351	-1.17282	-0.150072	0.0936793	-0.471754	0.076299	-0.349195	0.62125	0.0896353	0.207667	-0.0838473	-1.17306	-0.0700983	0.0757998	0.518806	-0.0396787	-0.304589	0.679403	0.132711	0.233839	-0.0605287
0.878428	0.0816019	-0.193838	-1.85609	9.55933e-05	0.991773	0.162634	-0.237801	-0.184555	-0.263007	0.354717	0.172909	0.124742	-0.0931589	0.134374	0.0642856	-0.0696532	0.402133	0.0873853	-0.0166562	-0.0710831	-0.0494831	-0.636476	-0.0544674	-0.0393229	0.171514	0.0466626	0.0123151	-0.231104	0.0235785	-1.17205	-0.149904	0.0948826	-0.47561	0.0745751	-0.348348	0.620744	0.0902722	0.208088	-0.0836952	-1.1733	-0.0701641	0.0752589	0.517397	-0.0426902	-0.30983	0.67276	0.135809	0.237051	-0.0613877
0.886715	0.0804517	-0.199384	-1.84731	0.00165738	0.992948	0.138847	-0.229174	-0.177178	-0.260267	0.346641	0.168759	0.123799	-0.0933821	0.114183	0.0563762	-0.0656244	0.417448	0.0883574	-0.0177397	-0.0714388	-0.0425198	-0.629783	-0.0496387	-0.0392464	0.172613	0.0438692	0.0137565	-0.226321	0.0214243	-1.17146	-0.149882	0.0954805	-0.479395	0.0728079	-0.348621	0.619057	0.0914015	0.209099	-0.0834633	-1.17326	-0.0701166	0.0746809	0.516434	-0.0461688	-0.313623	0.666233	0.139384	0.240506	-0.0622621
0.895002	0.0783282	-0.202771	-1.83858	0.00400349	0.993976	0.11711	-0.21887	-0.169215	-0.257179	0.340252	0.163594	0.121756	-0.0938116	0.0908183	0.0480192	-0.0611315	0.431328	0.0897715	-0.0185605	-0.0717293	-0.0345036	-0.621919	-0.0447014	-0.0388364	0.173948	0.0399129	0.0156392	-0.220689	0.0186081	-1.1711	-0.149979	0.0955413	-0.483093	0.0710314	-0.349929	0.616367	0.0929629	0.210601	-0.0831693	-1.17299	-0.0699572	0.074122	0.515979	-0.0499194	-0.316164	0.659912	0.143297	0.244066	-0.0631312
0.903289	0.0753517	-0.204099	-1.82991	0.00716675	0.994817	0.0975105	-0.207704	-0.160934	-0.25404	0.335176	0.157845	0.118879	-0.0943583	0.0650412	0.0396011	-0.056434	0.442159	0.0914118	-0.0189304	-0.0719513	-0.0257187	-0.613054	-0.0398167	-0.0381324	0.175445	0.0349984	0.017842	-0.214353	0.015291	-1.17096	-0.150162	0.0951566	-0.486688	0.0692756	-0.352119	0.612918	0.0948771	0.212467	-0.0828437	-1.17256	-0.0696942	0.0736147	0.51604	-0.0537659	-0.317648	0.653901	0.147389	0.247576	-0.0639837
0.911576	0.0716781	-0.203637	-1.82129	0.0111462	0.995449	0.0800613	-0.196404	-0.152651	-0.251154	0.331068	0.151919	0.115447	-0.0949215	0.0377216	0.0315166	-0.0518265	0.448557	0.0930967	-0.0186839	-0.0721107	-0.0165092	-0.60347	-0.0351793	-0.037182	0.17703	0.0293933	0.0202174	-0.207515	0.0116547	-1.17106	-0.150392	0.0944329	-0.49015	0.0675765	-0.355007	0.608987	0.0970444	0.214553	-0.0825211	-1.17203	-0.069344	0.0731614	0.516582	-0.0575539	-0.318276	0.648285	0.151491	0.250886	-0.0648131
0.919863	0.0674778	-0.201773	-1.81278	0.0159027	0.995875	0.0647039	-0.185589	-0.144703	-0.248775	0.327617	0.146163	0.111736	-0.0954212	0.00980051	0.0241121	-0.0475657	0.449623	0.094686	-0.0177079	-0.072217	-0.00723723	-0.593526	-0.030966	-0.0360429	0.178625	0.0233876	0.022621	-0.200423	0.0078859	-1.17137	-0.150633	0.0934769	-0.49344	0.0659688	-0.358393	0.604841	0.0993535	0.216718	-0.0822323	-1.17144	-0.0689266	0.0727563	0.517534	-0.0611461	-0.318253	0.643125	0.155436	0.253867	-0.0656127
0.92815	0.0629294	-0.198956	-1.80448	0.0213583	0.996117	0.0513208	-0.175753	-0.137405	-0.247044	0.324565	0.140846	0.108011	-0.0958049	-0.0177515	0.0176498	-0.0438188	0.445104	0.0960851	-0.0159602	-0.072282	0.00174626	-0.583612	-0.027318	-0.0347875	0.180153	0.0172747	0.024935	-0.193354	0.00415392	-1.17188	-0.150859	0.0923851	-0.496514	0.0644834	-0.362076	0.600716	0.10169	0.21884	-0.0819993	-1.17085	-0.0684625	0.0723895	0.518799	-0.0644305	-0.317781	0.638444	0.159079	0.256429	-0.0663727
0.936437	0.0581998	-0.195634	-1.79656	0.0273993	0.996206	0.0397486	-0.167247	-0.131014	-0.245981	0.321707	0.136144	0.104513	-0.0960466	-0.0439863	0.0122912	-0.0406533	0.435418	0.0972415	-0.0134786	-0.0723195	0.0101236	-0.574112	-0.024322	-0.0334965	0.181543	0.0113294	0.0270674	-0.186591	0.000601366	-1.17255	-0.151048	0.0912416	-0.499328	0.0631498	-0.365868	0.59679	0.103946	0.220819	-0.0818344	-1.1703	-0.0679735	0.0720408	0.520263	-0.0673249	-0.31706	0.634228	0.1623	0.258529	-0.0670821
